<svg width="60" height="60" viewBox="0 0 60 60" fill="none" xmlns="http://www.w3.org/2000/svg">
<g filter="url(#filter0_ii_1_373)">
<rect width="60" height="60" rx="30" fill="url(#paint0_radial_1_373)"/>
<g clip-path="url(#clip0_1_373)">
<path d="M40 27.5V27C40 26.071 40 25.6065 39.9384 25.2178C39.5996 23.0784 37.9216 21.4004 35.7822 21.0616C35.3935 21 34.929 21 34 21H28C25.1997 21 23.7996 21 22.7301 21.545C21.7892 22.0243 21.0243 22.7892 20.545 23.7301C20 24.7996 20 26.1997 20 29V31C20 33.8003 20 35.2004 20.545 36.27C21.0243 37.2108 21.7892 37.9757 22.7301 38.455C23.7996 39 25.1997 39 28 39H34C34.929 39 35.3935 39 35.7822 38.9384C37.9216 38.5996 39.5996 36.9216 39.9384 34.7822C40 34.3935 40 33.929 40 33V32.5M36 26L35 26.6667L34.4376 27.0416C32.8338 28.1108 32.0319 28.6454 31.1652 28.8531C30.3992 29.0366 29.6008 29.0366 28.8348 28.8531C27.9681 28.6454 27.1662 28.1108 25.5624 27.0416L25 26.6667L24 26" stroke="white" stroke-width="1.5" stroke-linecap="round"/>
</g>
</g>
<defs>
<filter id="filter0_ii_1_373" x="0" y="0" width="60" height="60" filterUnits="userSpaceOnUse" color-interpolation-filters="sRGB">
<feFlood flood-opacity="0" result="BackgroundImageFix"/>
<feBlend mode="normal" in="SourceGraphic" in2="BackgroundImageFix" result="shape"/>
<feColorMatrix in="SourceAlpha" type="matrix" values="0 0 0 0 0 0 0 0 0 0 0 0 0 0 0 0 0 0 127 0" result="hardAlpha"/>
<feMorphology radius="1" operator="erode" in="SourceAlpha" result="effect1_innerShadow_1_373"/>
<feOffset/>
<feComposite in2="hardAlpha" operator="arithmetic" k2="-1" k3="1"/>
<feColorMatrix type="matrix" values="0 0 0 0 1 0 0 0 0 1 0 0 0 0 1 0 0 0 0.08 0"/>
<feBlend mode="normal" in2="shape" result="effect1_innerShadow_1_373"/>
<feColorMatrix in="SourceAlpha" type="matrix" values="0 0 0 0 0 0 0 0 0 0 0 0 0 0 0 0 0 0 127 0" result="hardAlpha"/>
<feOffset dy="1"/>
<feComposite in2="hardAlpha" operator="arithmetic" k2="-1" k3="1"/>
<feColorMatrix type="matrix" values="0 0 0 0 1 0 0 0 0 1 0 0 0 0 1 0 0 0 0.08 0"/>
<feBlend mode="normal" in2="effect1_innerShadow_1_373" result="effect2_innerShadow_1_373"/>
</filter>
<radialGradient id="paint0_radial_1_373" cx="0" cy="0" r="1" gradientUnits="userSpaceOnUse" gradientTransform="translate(30 30) rotate(45) scale(42.4264)">
<stop stop-color="white" stop-opacity="0.08"/>
<stop offset="1" stop-color="white" stop-opacity="0"/>
</radialGradient>
<clipPath id="clip0_1_373">
<rect width="24" height="24" fill="white" transform="translate(18 18)"/>
</clipPath>
</defs>
</svg>
