<svg width="60" height="60" viewBox="0 0 60 60" fill="none" xmlns="http://www.w3.org/2000/svg">
<g filter="url(#filter0_ii_1_361)">
<rect width="60" height="60" rx="30" fill="url(#paint0_radial_1_361)"/>
<g clip-path="url(#clip0_1_361)">
<path d="M30.1549 26.5952C30.0664 26.2482 30.0221 25.9012 30.0221 25.5542C30.0221 23.0386 32.1026 21 34.67 21C35.998 21 37.1932 21.5205 38.0785 22.4313C39.0966 22.2145 40.1147 21.8241 41 21.3036C41 24.1765 39.3577 25.2353 39.3577 25.2353C39.3577 25.2353 39.3577 25.5709 39.3577 26.0747C39.3577 32.1036 34.67 39 26.1268 39C23.4708 39 21.0362 38.2627 19 36.9614C21.4434 37.2607 23.9122 36.5817 25.8612 35.0964C23.8249 35.053 22.0986 33.7518 21.5231 31.9301C22.2429 32.0309 22.8924 32.0176 23.6036 31.8434C21.4333 31.4003 19.8853 29.4941 19.8853 27.3325C20.505 27.6795 21.2575 27.853 22.0101 27.8964C20.0044 26.6088 19.309 23.8497 20.5493 21.8241C22.2001 23.7838 24.4429 25.275 27 26.0418" stroke="white" stroke-width="1.5" stroke-linecap="round" stroke-linejoin="round"/>
</g>
</g>
<defs>
<filter id="filter0_ii_1_361" x="0" y="0" width="60" height="60" filterUnits="userSpaceOnUse" color-interpolation-filters="sRGB">
<feFlood flood-opacity="0" result="BackgroundImageFix"/>
<feBlend mode="normal" in="SourceGraphic" in2="BackgroundImageFix" result="shape"/>
<feColorMatrix in="SourceAlpha" type="matrix" values="0 0 0 0 0 0 0 0 0 0 0 0 0 0 0 0 0 0 127 0" result="hardAlpha"/>
<feMorphology radius="1" operator="erode" in="SourceAlpha" result="effect1_innerShadow_1_361"/>
<feOffset/>
<feComposite in2="hardAlpha" operator="arithmetic" k2="-1" k3="1"/>
<feColorMatrix type="matrix" values="0 0 0 0 1 0 0 0 0 1 0 0 0 0 1 0 0 0 0.08 0"/>
<feBlend mode="normal" in2="shape" result="effect1_innerShadow_1_361"/>
<feColorMatrix in="SourceAlpha" type="matrix" values="0 0 0 0 0 0 0 0 0 0 0 0 0 0 0 0 0 0 127 0" result="hardAlpha"/>
<feOffset dy="1"/>
<feComposite in2="hardAlpha" operator="arithmetic" k2="-1" k3="1"/>
<feColorMatrix type="matrix" values="0 0 0 0 1 0 0 0 0 1 0 0 0 0 1 0 0 0 0.08 0"/>
<feBlend mode="normal" in2="effect1_innerShadow_1_361" result="effect2_innerShadow_1_361"/>
</filter>
<radialGradient id="paint0_radial_1_361" cx="0" cy="0" r="1" gradientUnits="userSpaceOnUse" gradientTransform="translate(30 30) rotate(45) scale(42.4264)">
<stop stop-color="white" stop-opacity="0.08"/>
<stop offset="1" stop-color="white" stop-opacity="0"/>
</radialGradient>
<clipPath id="clip0_1_361">
<rect width="24" height="24" fill="white" transform="translate(18 18)"/>
</clipPath>
</defs>
</svg>
