<svg width="43" height="42" viewBox="0 0 43 42" fill="none" xmlns="http://www.w3.org/2000/svg">
<rect x="3.84003" y="3.11914" width="35.2846" height="33.2684" fill="white"/>
<path d="M36.0346 35.4532H29.9103V25.862C29.9103 23.5748 29.8695 20.6306 26.725 20.6306C23.5353 20.6306 23.0472 23.1225 23.0472 25.6955V35.4526H16.9229V15.7291H22.8023V18.4245H22.8846C23.473 17.4184 24.3232 16.5908 25.3447 16.0298C26.3662 15.4687 27.5208 15.1952 28.6855 15.2385C34.8927 15.2385 36.0372 19.3215 36.0372 24.6332L36.0346 35.4532ZM10.0126 13.033C9.30972 13.0331 8.62253 12.8248 8.038 12.4344C7.45348 12.0439 6.99788 11.4889 6.72877 10.8396C6.45966 10.1902 6.38913 9.47556 6.52614 8.7861C6.66315 8.09664 7.00153 7.46329 7.49848 6.96615C7.99543 6.469 8.62864 6.13039 9.31803 5.99313C10.0074 5.85587 10.722 5.92612 11.3715 6.19501C12.0209 6.4639 12.5761 6.91934 12.9667 7.50375C13.3573 8.08815 13.5659 8.77527 13.566 9.47822C13.5661 9.94495 13.4743 10.4071 13.2957 10.8384C13.1172 11.2696 12.8555 11.6615 12.5255 11.9916C12.1956 12.3217 11.8038 12.5835 11.3726 12.7622C10.9415 12.9409 10.4794 13.0329 10.0126 13.033ZM13.0748 35.4532H6.94409V15.7291H13.0748V35.4532ZM39.0879 0.237191H3.86664C3.06721 0.228169 2.29687 0.536907 1.72496 1.09556C1.15305 1.65422 0.826346 2.41708 0.816589 3.21652V38.5851C0.826012 39.3849 1.15252 40.1483 1.72442 40.7075C2.29631 41.2667 3.06682 41.5761 3.86664 41.5676H39.0879C39.8893 41.5776 40.6619 41.2692 41.2361 40.7099C41.8102 40.1507 42.1389 39.3865 42.15 38.5851V3.21397C42.1386 2.41294 41.8097 1.64921 41.2355 1.09057C40.6613 0.531929 39.8889 0.224074 39.0879 0.234638" fill="#0A66C2"/>
</svg>
