<svg width="24" height="20" viewBox="0 0 24 20" fill="none" xmlns="http://www.w3.org/2000/svg">
<path d="M4.1121 5.66595C4.1121 4.05136 4.97322 2.54442 6.4084 1.71918C7.80771 0.893949 9.56582 0.893949 11.001 1.71918C12.4003 2.54442 13.2973 4.05136 13.2973 5.66595C13.2973 7.31642 12.4003 8.82337 11.001 9.6486C9.56582 10.4738 7.80771 10.4738 6.4084 9.6486C4.97322 8.82337 4.1121 7.31642 4.1121 5.66595ZM0.667649 18.4033C0.667649 14.8512 3.50215 11.9808 7.05424 11.9808H10.3193C13.8714 11.9808 16.7418 14.8512 16.7418 18.4033C16.7418 18.9773 16.2394 19.4438 15.6654 19.4438H1.70816C1.13409 19.4438 0.667649 18.9773 0.667649 18.4033ZM18.751 12.2678V9.97152H16.4547C15.9524 9.97152 15.5936 9.61272 15.5936 9.1104C15.5936 8.64397 15.9524 8.24929 16.4547 8.24929H18.751V5.95299C18.751 5.48655 19.1098 5.09188 19.6121 5.09188C20.0786 5.09188 20.4733 5.48655 20.4733 5.95299V8.24929H22.7696C23.236 8.24929 23.6307 8.64397 23.6307 9.1104C23.6307 9.61272 23.236 9.97152 22.7696 9.97152H20.4733V12.2678C20.4733 12.7701 20.0786 13.1289 19.6121 13.1289C19.1098 13.1289 18.751 12.7701 18.751 12.2678Z" fill="white"/>
</svg>
